<svg width="34" height="34" viewBox="0 0 34 34" fill="none" xmlns="http://www.w3.org/2000/svg">
<path d="M30.6048 15.339C30.9669 15.7945 31.1673 16.3864 31.1673 17C31.1673 17.6137 30.9669 18.2055 30.6048 18.6611C28.312 21.4625 23.093 26.9167 17.0007 26.9167C10.9083 26.9167 5.6894 21.4625 3.39658 18.6611C3.03444 18.2055 2.83398 17.6137 2.83398 17C2.83398 16.3864 3.03444 15.7945 3.39658 15.339C5.6894 12.5375 10.9083 7.08333 17.0007 7.08333C23.093 7.08333 28.312 12.5375 30.6048 15.339Z" stroke="#98989A" stroke-width="1.5" stroke-linecap="round" stroke-linejoin="round"/>
<path d="M17.0014 21.4072C19.4134 21.4072 21.3687 19.4339 21.3687 16.9998C21.3687 14.5657 19.4134 12.5925 17.0014 12.5925C14.5894 12.5925 12.6341 14.5657 12.6341 16.9998C12.6341 19.4339 14.5894 21.4072 17.0014 21.4072Z" stroke="#98989A" stroke-width="1.5" stroke-linecap="round" stroke-linejoin="round"/>
</svg>

